<svg id="Layer_1" data-name="Layer 1" xmlns="http://www.w3.org/2000/svg" viewBox="0 0 2774.19 1116.31"><defs><style>.cls-1{fill:#231f20;}.cls-2{fill:#fff;}.cls-3{fill:#fff;}.cls-4{fill:#fff;}.cls-5{fill:#fff;}.cls-6{fill:#fff;}.cls-7{fill:#fff;}</style></defs><title>DCL-4c-logo.logis-rld</title><path class="cls-1" d="M-184.91-258.47V68H-352.25V-414.32a22.38,22.38,0,0,1,2.36-.24c104,0,208-.47,312,0.3,57.65,0.43,114,9.53,167.58,32.17,83,35.11,137.35,96.64,166.25,181.4,1.55,4.55,3,9.16,4.73,14.67,2-5.89,3.61-11,5.37-16.13,19.19-55.75,50.19-103.35,97-139.92,37.21-29.06,79.51-47.32,125.1-58.48,40.17-9.83,81-13.9,122.29-14q136-.21,272,0h3.26v156.12H920c-93.66,0-187.32-.12-281,0.14-28.67.08-56.72,4.55-83.23,16.14-42.88,18.74-69.46,51.93-83.76,95.66-11.8,36.11-14.66,73.35-12.47,111,2,35.2,9.92,69,25.29,101,22.27,46.24,59.24,73.1,109.31,81.69a311.76,311.76,0,0,0,51.17,4.23c91.32,0.4,182.65.19,274,.19h6.29V307.68c-1.27.06-2.41,0.16-3.55,0.16-98-.12-196,0.2-294-0.57-50.22-.39-99.48-7.82-146.48-26.77-53-21.37-95.53-55.95-129.1-102-21.92-30.08-39.29-62.41-50.61-97.92a26,26,0,0,0-1.47-3c-14.86,48.1-39.88,90-72.82,127.13-41.76,47.12-94.16,76.3-155.1,90.82C32.4,305-8.4,307.74-49.47,307.76q-149,.06-298,0.09h-4.8V151.62h5.76q156.24,0,312.47-.17c27.35-.06,54-4.55,79.3-15.52,37.61-16.33,61.56-45.42,76.77-82.59,18-44.08,22.88-90,19.27-137.14-2-26-6.74-51.47-16.66-75.7-21.39-52.28-60.59-83.14-115.55-93.77a289.49,289.49,0,0,0-50.6-4.92c-46.49-.66-93-0.25-139.49-0.26h-4Z" transform="translate(1239.36 415.65)"/><path class="cls-1" d="M1534.83,307.67h-527.4V-414.21h167.5V151.43h359.9V307.67Z" transform="translate(1239.36 415.65)"/><path class="cls-2" d="M-979.15,307c1.57-1,3.41-1.66,4.67-2.93C-951,280.46-927.05,257.21-904.2,233s40.3-51.8,48.88-84.29c10.24-38.78,4.07-75.59-14.68-110.55-4.78-8.92-10.42-17.38-15.44-25.68l73.75-73.8C-801.28-55.6-791.08-48.83-780-44c62,26.87,120.11,20.49,173.19-22.37,10.09-8.15,19.61-17.06,28.89-26.15,19.64-19.24,38.95-38.83,58.4-58.27,1.23-1.23,2.56-2.37,4.68-4.32v5.84q0,206,0,412c0,22.86-13,40.19-34.08,45.12a54.72,54.72,0,0,1-12.37,1.3q-205.75.1-411.49,0.05h-4.87Z" transform="translate(1239.36 415.65)"/><path class="cls-3" d="M-942.36-46c-13.91-7-27.61-15.59-42.45-21.09-59.44-22-114.21-13-163.33,27.41-10.28,8.45-19.94,17.69-29.47,27-19.3,18.88-38.31,38.05-57.44,57.1-1,1-2.15,2-3.87,3.55-0.19-2.08-.42-3.45-0.42-4.82q0-206.74,0-413.49c0-26.59,18.76-45.23,45.42-45.24q207-.09,414,0h4.68c-1.84,2-2.92,3.35-4.11,4.54-22,22.07-44.3,43.85-66,66.25-23.06,23.84-41.57,50.77-51.6,82.78-13.59,43.36-6.35,84.17,15.85,123,3.88,6.78,8.29,13.26,12.06,19.25Z" transform="translate(1239.36 415.65)"/><path class="cls-2" d="M-746.47-127.92c14.07-14,27.94-27.72,41.64-41.57,13.42-13.55,16-32.14,6.86-48.17-12.24-21.54-41.3-27.17-59.74-10.66-14.38,12.88-27.61,27.05-41.28,40.72-1.4,1.4-2.32,3.26-3.92,5.56-16.22-27.43-19.55-54.08-4.77-81.13A123.71,123.71,0,0,1-787.88-290c31.43-32.2,63.38-63.89,95.34-95.57,13.83-13.71,29.62-24.3,49.39-27.44,14.2-2.25,27.9,0,41.06,5.48,32.27,13.41,56.81,35.85,74,65.94,18.65,32.68,15.47,65.13-8.7,94.14-8.93,10.72-19.12,20.42-29,30.35q-37.34,37.61-74.94,75c-13,12.83-27.67,22.93-46,26.81C-705.26-111.36-729.74-116.34-746.47-127.92Z" transform="translate(1239.36 415.65)"/><path class="cls-2" d="M-1007.58,20.83c-10.1,10.1-19.89,19.85-29.63,29.63-5.05,5.08-10.39,9.93-15,15.4-14.2,16.94-12.34,40,4.13,55.17,15.32,14.08,39.05,13.5,54.27-1.5,13.06-12.87,25.94-25.91,38.92-38.86,1.27-1.26,2.6-2.47,4.31-4.09,9.43,16,14.82,32.51,13.06,50.76-2.16,22.31-13.19,40.29-28.53,55.8q-42.53,43-85.52,85.59c-6.49,6.46-13,12.94-20.06,18.77-13.09,10.81-27.86,18.09-45.15,19.4-12.76,1-24.89-1.67-36.48-6.63-31.92-13.64-56.24-36.07-73.23-66.08-18.22-32.18-14.95-64.81,9.19-93.72,9.26-11.1,19.84-21.12,30.05-31.39Q-1150.75,72.39-1114,36c14-13.8,29.73-24.77,49.67-28C-1043.94,4.76-1025.54,10.67-1007.58,20.83Z" transform="translate(1239.36 415.65)"/><path class="cls-4" d="M-55,687.95l6-25.54c13.43,2.59,26.38,5.47,39.47,7.44,5.81,0.87,12,.38,17.86-0.33,11.11-1.33,18.23-8,21-18.63,1.81-6.91,2.34-14.16,3.44-21.26l-1.23-.17c-3.62,3.09-7,6.51-10.9,9.23-29.71,20.85-72.11,6.14-81.94-28.63-5.85-20.7-5.11-41.59,1.41-62,7-22,25.18-33.32,48.33-32.13,16.39,0.84,30.18,7.24,43.37,17.93V518.78H69.92c0.09,1.57.26,3,.26,4.46q0,54.73,0,109.45c0,11.41-1.35,22.58-5.39,33.32-7.35,19.56-22.21,30-42.19,33.09-26.08,4-51.39.27-75.74-9.92A14,14,0,0,1-55,687.95ZM32,583c0-4.66.07-9.33,0-14a8.93,8.93,0,0,0-.91-4.24C23.82,552.69,5.74,545.6-8.3,549c-7.61,1.83-12.78,6.35-15.39,13.57-3.45,9.58-4,19.47-2.51,29.53,2.56,17.57,12.31,25.9,29.86,25.29,9.35-.32,16.47-4.93,23.28-11.1,5.76-5.22,5.1-11.41,5.09-17.82Q32,585.72,32,583Z" transform="translate(1239.36 415.65)"/><path class="cls-4" d="M-150.7,514.5c10.45,2.43,21.42,3.58,31.25,7.55,24.38,9.82,35.38,29.93,37.16,55.08a105.55,105.55,0,0,1-2.42,32.12c-6.38,26-24.39,40.37-50.28,45.06A89.08,89.08,0,0,1-173.62,653c-26.79-7-44.3-28.19-46.34-56-0.88-12-.63-23.91,2.8-35.6,7.67-26.17,28.87-43.17,56.17-44.9,3.32-.21,6.64-0.38,10-0.57Zm-0.89,110.08c15.93,0.07,26.47-7.46,30.29-22.16a62.33,62.33,0,0,0-.79-34.94c-4.26-13.49-14.46-20.59-29-20.54-14.74.05-24.63,7-28.94,20.62A61.91,61.91,0,0,0-181.12,601C-177.4,616.72-167.58,624.5-151.59,624.57Z" transform="translate(1239.36 415.65)"/><path class="cls-5" d="M604.32,613.35c10.69,3.59,20.88,7.83,31.49,10.31,7.93,1.85,16.4,1.85,24.63,1.87,4.81,0,8.5-2.89,9.29-8.17,0.68-4.54-1.67-8.76-7.05-10.86-7.74-3-15.79-5.18-23.6-8a181.67,181.67,0,0,1-19.41-7.79c-15.4-7.65-21.53-20.42-19.82-37.37,1.61-16,9.26-27.55,24.31-33.68,9.11-3.71,18.74-4.52,28.46-4a183.31,183.31,0,0,1,49.24,10,25.81,25.81,0,0,1,2.65,1.32l-9.22,26.21c-11.26-2.48-22-5.2-33-7.1a78.25,78.25,0,0,0-17.81-.7c-4.66.27-8,3.07-8.7,8.15-0.77,5.32,1.78,8.85,6.39,10.59,6.36,2.41,13,4.18,19.42,6.31,8.21,2.7,16.64,4.9,24.53,8.34,16.1,7,23.51,17,21.24,39.1C705.25,638.94,692.17,651,670,654.39c-25.85,3.91-49.95-1.42-72.69-13.89-2.14-1.18-3.42-2.31-2.24-5C598.31,628,601.36,620.48,604.32,613.35Z" transform="translate(1239.36 415.65)"/><path class="cls-5" d="M269.39,526.23l-9.54,26.93c-11.24-2.48-22-5.24-32.93-7.11a81.9,81.9,0,0,0-18.3-.6c-4.86.28-7.76,3.68-8.41,8.51a8.72,8.72,0,0,0,6,9.87c7.79,2.85,15.87,4.91,23.69,7.67,8.76,3.09,17.66,6,26,10,10.43,5.06,16,14.19,16,25.76,0,7.53-.37,15.52-2.85,22.5-5.58,15.72-19.07,22-34.39,24.5-26,4.19-50.29-1.35-73.07-14.13-1.11-.62-2.51-2.74-2.2-3.56,3-7.89,6.37-15.65,9.78-23.82,4.58,1.89,8.66,3.68,12.81,5.26,11.87,4.51,23.94,8.22,36.79,8.3a31.23,31.23,0,0,0,7.4-.91c4.12-1,7.4-3.07,8-7.79,0.58-4.88-1.3-8.67-5.75-10.59-5-2.17-10.29-3.75-15.43-5.65-9.66-3.55-19.64-6.46-28.89-10.87-15.28-7.3-21.47-20.25-19.79-36.92,1.81-18,11.75-30.32,28-35.19,16.51-5,33-2.78,49.41.53C250.85,520.82,259.87,523.7,269.39,526.23Z" transform="translate(1239.36 415.65)"/><path class="cls-6" d="M-313.29,617.21h78.7V653c-2,.1-3.71.26-5.47,0.26-35.66,0-71.33-.05-107,0.1-4.14,0-5.79-.71-5.78-5.39,0.17-53.83.11-107.66,0.12-161.49,0-1.46.16-2.92,0.27-4.65h39.16V617.21Z" transform="translate(1239.36 415.65)"/><path class="cls-4" d="M299.33,487.63h38.44v30.6h35V550H338.32c-0.17,1.84-.4,3.12-0.4,4.4,0,16.82-.07,33.64,0,50.47,0.06,13.31,5.12,18.3,18.55,18.45,6.13,0.07,12.27,0,19,0,1.06,6.66,2.32,14,3.26,21.33,0.12,0.93-1.25,2.61-2.31,3.06-16.21,6.86-33,9-50.28,5.21-13-2.87-21.09-11.44-23.87-24.16a141.53,141.53,0,0,1-2.81-26.2c-0.43-15.48-.12-31-0.12-46.46,0-1.79,0-3.57,0-5.95h-19V518.57h19V487.63Z" transform="translate(1239.36 415.65)"/><path class="cls-5" d="M578.4,530.33L567.94,554c-8-2-15.52-4.56-23.29-5.74a85.21,85.21,0,0,0-20.88-.63c-9.82.95-17.09,6.7-21.15,15.58a53.55,53.55,0,0,0-.71,44.57c4.57,10.82,13.4,16.21,25.1,16.75,15.75,0.73,30.24-3.68,44.42-11.64,3.86,7.23,7.66,14.18,11.21,21.24,0.35,0.7-.46,2.53-1.26,3.19-25.11,20.51-65,23.42-88.2,11.43-21.26-11-30.81-29.67-33-52.51-1.53-15.74-.22-31.31,6.82-45.88,10.21-21.14,27.61-31.82,50.52-33.9a100.47,100.47,0,0,1,56.08,10.88c1,0.53,2.07,1.07,3.08,1.64A19.9,19.9,0,0,1,578.4,530.33Z" transform="translate(1239.36 415.65)"/><path class="cls-2" d="M100.13,518.64h37.68V653H100.13V518.64Z" transform="translate(1239.36 415.65)"/><path class="cls-2" d="M435.69,653H398V518.79h37.66V653Z" transform="translate(1239.36 415.65)"/><path class="cls-7" d="M119.19,459.32c13.1,0.07,21.88,8.22,21.72,20.14-0.16,11.68-9.5,20-22.29,19.8-13-.18-21.74-8.38-21.62-20.36S105.9,459.25,119.19,459.32Z" transform="translate(1239.36 415.65)"/><path class="cls-7" d="M416.85,459.33c13.13,0,22,8.21,21.89,20.14-0.13,11.61-9.63,20-22.44,19.8s-21.42-8.22-21.42-20.09C394.88,467.06,403.49,459.29,416.85,459.33Z" transform="translate(1239.36 415.65)"/></svg>