<?xml version="1.0" encoding="utf-8"?>
<!-- Generated by IcoMoon.io -->
<!DOCTYPE svg PUBLIC "-//W3C//DTD SVG 1.1//EN" "http://www.w3.org/Graphics/SVG/1.1/DTD/svg11.dtd">
<svg version="1.1" xmlns="http://www.w3.org/2000/svg" xmlns:xlink="http://www.w3.org/1999/xlink" width="640" height="512" viewBox="0 0 640 512" fill="#58A">
<g id="icomoon-ignore">
</g>
<path d="M608 32v184c0 4.72-4.261 15.006-7.598 18.343l-232.402 232.402-194.745-194.745 232.402-232.402c3.337-3.337 13.623-7.598 18.343-7.598h184zM616 0h-192c-13.2 0-31.637 7.637-40.971 16.971l-238.058 238.058c-9.334 9.334-9.334 24.607 0 33.941l206.059 206.059c4.667 4.667 10.818 7 16.971 7s12.304-2.333 16.971-7l238.059-238.059c9.332-9.333 16.969-27.77 16.969-40.97v-192c0-13.2-10.8-24-24-24v0z"></path>
<path d="M544 144c0 26.51-21.49 48-48 48s-48-21.49-48-48c0-26.51 21.49-48 48-48s48 21.49 48 48z"></path>
<path d="M317.256 0h-21.256c-13.2 0-31.637 7.637-40.971 16.971l-238.058 238.058c-9.334 9.334-9.334 24.607 0 33.941l206.059 206.059c4.667 4.667 10.819 7 16.971 7s12.304-2.333 16.971-7l5.656-5.656-217.373-217.373 272.001-272z"></path>
</svg>
