<?xml version="1.0" encoding="utf-8" standalone="no"?>
<!DOCTYPE svg PUBLIC "-//W3C//DTD SVG 1.1//EN"
  "http://www.w3.org/Graphics/SVG/1.1/DTD/svg11.dtd">
<svg xmlns:xlink="http://www.w3.org/1999/xlink" width="360pt" height="180pt" viewBox="0 0 300 130" xmlns="http://www.w3.org/2000/svg" version="1.1">
 <metadata>
  <rdf:RDF xmlns:dc="http://purl.org/dc/elements/1.1/" xmlns:cc="http://creativecommons.org/ns#" xmlns:rdf="http://www.w3.org/1999/02/22-rdf-syntax-ns#">
   <cc:Work>
    <dc:type rdf:resource="http://purl.org/dc/dcmitype/StillImage"/>
    <dc:date>2025-09-10T02:12:31.078501</dc:date>
    <dc:format>image/svg+xml</dc:format>
    <dc:creator>
     <cc:Agent>
      <dc:title>Matplotlib v3.6.3, https://matplotlib.org/</dc:title>
     </cc:Agent>
    </dc:creator>
   </cc:Work>
  </rdf:RDF>
 </metadata>
 <defs>
  <style type="text/css">*{stroke-linejoin: round; stroke-linecap: butt}</style>
 </defs>
 <g id="figure_1">
  <g id="patch_1">
   <path d="M 0 180 
L 360 180 
L 360 0 
L 0 0 
z
" style="fill: #ffffff"/>
  </g>
  <g id="axes_1">
   <g id="text_1">
    <!-- Aa -->
    <g style="fill: #333333" transform="translate(58.95 63.18) scale(0.72 -0.72)">
     <defs>
      <path id="Roboto-Regular-41" d="M 2213 4147 
L 706 0 
L 91 0 
L 1825 4550 
L 2222 4550 
L 2213 4147 
z
M 3475 0 
L 1966 4147 
L 1956 4550 
L 2353 4550 
L 4094 0 
L 3475 0 
z
M 3397 1684 
L 3397 1191 
L 841 1191 
L 841 1684 
L 3397 1684 
z
" transform="scale(0.015625)"/>
      <path id="Roboto-Regular-61" d="M 2434 578 
L 2434 2319 
Q 2434 2519 2354 2667 
Q 2275 2816 2115 2897 
Q 1956 2978 1722 2978 
Q 1503 2978 1339 2903 
Q 1175 2828 1083 2706 
Q 991 2584 991 2444 
L 413 2444 
Q 413 2625 506 2803 
Q 600 2981 776 3126 
Q 953 3272 1201 3358 
Q 1450 3444 1756 3444 
Q 2125 3444 2408 3319 
Q 2691 3194 2852 2942 
Q 3013 2691 3013 2313 
L 3013 738 
Q 3013 569 3042 378 
Q 3072 188 3131 50 
L 3131 0 
L 2528 0 
Q 2484 100 2459 267 
Q 2434 434 2434 578 
z
M 2534 2050 
L 2541 1644 
L 1956 1644 
Q 1709 1644 1515 1605 
Q 1322 1566 1190 1487 
Q 1059 1409 990 1292 
Q 922 1175 922 1019 
Q 922 859 994 728 
Q 1066 597 1211 520 
Q 1356 444 1569 444 
Q 1834 444 2037 556 
Q 2241 669 2361 831 
Q 2481 994 2491 1147 
L 2738 869 
Q 2716 738 2619 578 
Q 2522 419 2361 273 
Q 2200 128 1979 32 
Q 1759 -63 1484 -63 
Q 1141 -63 883 71 
Q 625 206 483 432 
Q 341 659 341 941 
Q 341 1213 447 1420 
Q 553 1628 753 1767 
Q 953 1906 1234 1978 
Q 1516 2050 1863 2050 
L 2534 2050 
z
" transform="scale(0.015625)"/>
     </defs>
     <use xlink:href="#Roboto-Regular-41"/>
     <use xlink:href="#Roboto-Regular-61" x="65.234375"/>
    </g>
   </g>
   <g id="text_2">
    <!-- Roboto -->
    <g style="fill: #333333" transform="translate(58.95 132.48) scale(0.48 -0.48)">
     <defs>
      <path id="Roboto-Regular-52" d="M 528 4550 
L 2034 4550 
Q 2547 4550 2901 4394 
Q 3256 4238 3442 3933 
Q 3628 3628 3628 3184 
Q 3628 2872 3501 2614 
Q 3375 2356 3139 2176 
Q 2903 1997 2575 1909 
L 2406 1844 
L 991 1844 
L 984 2334 
L 2053 2334 
Q 2378 2334 2593 2448 
Q 2809 2563 2918 2756 
Q 3028 2950 3028 3184 
Q 3028 3447 2925 3644 
Q 2822 3841 2601 3948 
Q 2381 4056 2034 4056 
L 1131 4056 
L 1131 0 
L 528 0 
L 528 4550 
z
M 3188 0 
L 2081 2063 
L 2709 2066 
L 3831 38 
L 3831 0 
L 3188 0 
z
" transform="scale(0.015625)"/>
      <path id="Roboto-Regular-6f" d="M 288 1653 
L 288 1725 
Q 288 2091 394 2405 
Q 500 2719 700 2951 
Q 900 3184 1184 3314 
Q 1469 3444 1822 3444 
Q 2178 3444 2464 3314 
Q 2750 3184 2951 2951 
Q 3153 2719 3259 2405 
Q 3366 2091 3366 1725 
L 3366 1653 
Q 3366 1288 3259 975 
Q 3153 663 2951 430 
Q 2750 197 2467 67 
Q 2184 -63 1828 -63 
Q 1472 -63 1187 67 
Q 903 197 701 430 
Q 500 663 394 975 
Q 288 1288 288 1653 
z
M 866 1725 
L 866 1653 
Q 866 1400 925 1176 
Q 984 953 1104 781 
Q 1225 609 1406 511 
Q 1588 413 1828 413 
Q 2066 413 2245 511 
Q 2425 609 2544 781 
Q 2663 953 2723 1176 
Q 2784 1400 2784 1653 
L 2784 1725 
Q 2784 1975 2723 2198 
Q 2663 2422 2542 2595 
Q 2422 2769 2242 2869 
Q 2063 2969 1822 2969 
Q 1584 2969 1404 2869 
Q 1225 2769 1104 2595 
Q 984 2422 925 2198 
Q 866 1975 866 1725 
z
" transform="scale(0.015625)"/>
      <path id="Roboto-Regular-62" d="M 438 4800 
L 1019 4800 
L 1019 656 
L 969 0 
L 438 0 
L 438 4800 
z
M 3303 1719 
L 3303 1653 
Q 3303 1284 3215 970 
Q 3128 656 2959 425 
Q 2791 194 2547 65 
Q 2303 -63 1988 -63 
Q 1666 -63 1423 48 
Q 1181 159 1015 368 
Q 850 578 751 875 
Q 653 1172 616 1544 
L 616 1831 
Q 653 2206 751 2503 
Q 850 2800 1015 3011 
Q 1181 3222 1422 3333 
Q 1663 3444 1981 3444 
Q 2300 3444 2547 3320 
Q 2794 3197 2961 2969 
Q 3128 2741 3215 2423 
Q 3303 2106 3303 1719 
z
M 2722 1653 
L 2722 1719 
Q 2722 1972 2675 2195 
Q 2628 2419 2525 2589 
Q 2422 2759 2253 2857 
Q 2084 2956 1838 2956 
Q 1619 2956 1458 2881 
Q 1297 2806 1184 2679 
Q 1072 2553 1001 2392 
Q 931 2231 897 2059 
L 897 1306 
Q 947 1088 1061 886 
Q 1175 684 1367 556 
Q 1559 428 1844 428 
Q 2078 428 2245 523 
Q 2413 619 2517 787 
Q 2622 956 2672 1178 
Q 2722 1400 2722 1653 
z
" transform="scale(0.015625)"/>
      <path id="Roboto-Regular-74" d="M 1856 3381 
L 1856 2938 
L 28 2938 
L 28 3381 
L 1856 3381 
z
M 647 4203 
L 1225 4203 
L 1225 838 
Q 1225 666 1278 578 
Q 1331 491 1415 462 
Q 1500 434 1597 434 
Q 1669 434 1748 448 
Q 1828 463 1869 472 
L 1872 0 
Q 1803 -22 1692 -42 
Q 1581 -63 1425 -63 
Q 1213 -63 1034 21 
Q 856 106 751 304 
Q 647 503 647 841 
L 647 4203 
z
" transform="scale(0.015625)"/>
     </defs>
     <use xlink:href="#Roboto-Regular-52"/>
     <use xlink:href="#Roboto-Regular-6f" x="61.621094"/>
     <use xlink:href="#Roboto-Regular-62" x="118.652344"/>
     <use xlink:href="#Roboto-Regular-6f" x="174.804688"/>
     <use xlink:href="#Roboto-Regular-74" x="231.835938"/>
     <use xlink:href="#Roboto-Regular-6f" x="264.550781"/>
    </g>
   </g>
  </g>
 </g>
</svg>
