<svg width="164" height="127" viewBox="0 0 164 127" fill="none" xmlns="http://www.w3.org/2000/svg">
<path d="M144.184 118.116C144.172 118.064 143.022 112.819 145.371 108.463C147.72 104.107 152.734 102.186 152.784 102.167L153.013 102.081L153.068 102.32C153.079 102.372 154.23 107.617 151.881 111.973C149.532 116.329 144.518 118.25 144.468 118.269L144.238 118.355L144.184 118.116ZM152.699 102.664C151.695 103.096 147.731 104.987 145.747 108.666C143.763 112.345 144.362 116.696 144.553 117.772C145.557 117.341 149.519 115.453 151.505 111.77C153.489 108.091 152.89 103.74 152.699 102.664Z" fill="#3F3D56"/>
<path d="M150.086 110.445C145.865 112.985 144.239 118.029 144.239 118.029C144.239 118.029 149.457 118.956 153.678 116.416C157.899 113.877 159.525 108.832 159.525 108.832C159.525 108.832 154.307 107.906 150.086 110.445Z" fill="#D0CDE1"/>
<path d="M58.375 95.164C57.873 95.164 57.366 95.1561 56.8683 95.1405L56.8796 94.7791C57.5943 94.8013 58.3236 94.8075 59.0416 94.7976L59.0466 95.1594C58.8231 95.1624 58.5992 95.164 58.375 95.164ZM61.2236 95.0801L61.2024 94.719C61.9181 94.6768 62.6431 94.6174 63.357 94.5427L63.3948 94.9024C62.6754 94.9778 61.945 95.0377 61.2236 95.0801ZM54.6932 95.0238C53.9714 94.9685 53.2421 94.896 52.5253 94.808L52.5695 94.449C53.2808 94.5361 54.0045 94.6082 54.7207 94.663L54.6932 95.0238ZM65.5554 94.6259L65.5012 94.2683C66.2123 94.1603 66.929 94.0351 67.6306 93.8957L67.701 94.2504C66.994 94.3909 66.2721 94.5172 65.5554 94.6259ZM50.3699 94.4935C49.6569 94.3727 48.9372 94.2338 48.2308 94.0805L48.3076 93.7267C49.0086 93.879 49.7227 94.0169 50.4303 94.1366L50.3699 94.4935ZM69.8276 93.7767L69.7406 93.4255C70.4387 93.2529 71.1407 93.0621 71.8271 92.8585L71.9299 93.2055C71.2382 93.4107 70.5309 93.6029 69.8276 93.7767ZM46.1132 93.5693C45.4138 93.3833 44.71 93.1787 44.0213 92.9608L44.1304 92.616C44.8138 92.832 45.5123 93.035 46.2062 93.2195L46.1132 93.5693ZM74.0036 92.5379L73.8848 92.1962C74.5622 91.9606 75.2435 91.706 75.9101 91.4393L76.0444 91.7753C75.3728 92.044 74.6863 92.3006 74.0036 92.5379ZM41.9544 92.2545C41.2751 92.0048 40.5916 91.7354 39.9231 91.4538L40.0635 91.1202C40.727 91.3997 41.4052 91.667 42.0793 91.9149L41.9544 92.2545ZM78.0434 90.9214L77.8935 90.5921C78.5441 90.2965 79.198 89.981 79.837 89.6543L80.0017 89.9765C79.3577 90.3057 78.6988 90.6235 78.0434 90.9214ZM81.9148 88.9424L81.7356 88.6283C82.3595 88.2723 82.9823 87.8981 83.5863 87.5159L83.7796 87.8216C83.171 88.2067 82.5436 88.5839 81.9148 88.9424ZM85.5917 86.6163L85.3846 86.3198C85.972 85.9094 86.5583 85.4795 87.127 85.0424L87.3475 85.3293C86.7745 85.7698 86.1837 86.2028 85.5917 86.6163ZM30.4425 86.1067C29.8585 85.6825 29.2751 85.2382 28.7084 84.7857L28.9342 84.503C29.4966 84.9519 30.0755 85.3929 30.6551 85.8138L30.4425 86.1067ZM89.0431 83.9636L88.8099 83.6869C89.3574 83.2249 89.9023 82.7434 90.4297 82.2558L90.6753 82.5215C90.144 83.0129 89.5949 83.498 89.0431 83.9636ZM27.0367 83.3873C26.4928 82.9109 25.9524 82.4155 25.4306 81.9146L25.6812 81.6535C26.199 82.1507 26.7352 82.6424 27.275 83.1152L27.0367 83.3873ZM92.2405 81.0061L91.9829 80.7521C92.4876 80.2406 92.9869 79.7113 93.4666 79.1789L93.7355 79.421C93.2521 79.9575 92.7491 80.4908 92.2405 81.0061ZM23.8937 80.3708C23.3947 79.8461 22.9018 79.3037 22.4289 78.7588L22.7022 78.5217C23.1715 79.0625 23.6606 79.6007 24.1559 80.1213L23.8937 80.3708ZM95.1569 77.7692L94.8774 77.5395C95.3334 76.9846 95.7824 76.4119 96.2122 75.8372L96.502 76.0538C96.069 76.633 95.6165 77.2102 95.1569 77.7692ZM21.0392 77.0823C20.591 76.516 20.1498 75.9314 19.7276 75.3446L20.0212 75.1333C20.4402 75.7155 20.8781 76.2957 21.3229 76.8579L21.0392 77.0823ZM97.7674 74.2785L97.4681 74.0753C97.8716 73.4812 98.2668 72.8697 98.6427 72.2575L98.9511 72.4469C98.5722 73.0637 98.1739 73.6799 97.7674 74.2785ZM18.497 73.5495C18.1027 72.9451 17.7169 72.3232 17.35 71.7006L17.6617 71.5168C18.0258 72.1347 18.4088 72.752 18.8 73.3517L18.497 73.5495ZM100.05 70.5624L99.7331 70.3875C100.08 69.7589 100.418 69.1133 100.736 68.4686L101.061 68.629C100.74 69.2785 100.4 69.929 100.05 70.5624ZM101.982 66.6507L101.651 66.5055C101.939 65.847 102.216 65.1726 102.474 64.5012L102.811 64.6309C102.552 65.3076 102.273 65.9871 101.982 66.6507ZM14.4343 65.87C14.157 65.2042 13.8913 64.5231 13.6448 63.8454L13.985 63.7217C14.2295 64.3943 14.4931 65.0701 14.7683 65.7308L14.4343 65.87ZM103.547 62.5744L103.203 62.4606C103.429 61.7802 103.642 61.0848 103.837 60.3934L104.185 60.4913C103.989 61.188 103.774 61.8888 103.547 62.5744ZM12.9479 61.7814C12.7326 61.0918 12.5303 60.3874 12.3466 59.6874L12.6966 59.5955C12.8789 60.2902 13.0797 60.9894 13.2933 61.6737L12.9479 61.7814ZM104.726 58.381L104.374 58.2991C104.536 57.6017 104.684 56.8895 104.814 56.1826L105.17 56.248C105.039 56.9605 104.889 57.678 104.726 58.381ZM11.8427 57.568C11.6918 56.8612 11.5553 56.1413 11.4369 55.4277L11.7938 55.3683C11.9114 56.0766 12.0469 56.7911 12.1966 57.4923L11.8427 57.568ZM105.515 54.0973L105.156 54.0481C105.253 53.3395 105.335 52.6169 105.4 51.9002L105.761 51.9328C105.695 52.655 105.612 53.3831 105.515 54.0973ZM11.1296 53.2711C11.0443 52.5548 10.9742 51.8253 10.9213 51.1029L11.2823 51.0764C11.3347 51.7935 11.4043 52.5174 11.489 53.2283L11.1296 53.2711ZM105.908 49.7596L105.547 49.7433C105.579 49.0264 105.595 48.2992 105.595 47.582H105.957C105.957 48.3046 105.941 49.0373 105.908 49.7596ZM10.8117 48.9271C10.7993 48.4834 10.7931 48.0308 10.793 47.582C10.793 47.3036 10.7954 47.0256 10.8001 46.7483L11.162 46.7546C11.1572 47.0299 11.1548 47.3057 11.1548 47.582C11.1549 48.0274 11.1612 48.4767 11.1734 48.9172L10.8117 48.9271ZM11.2478 44.5944L10.8867 44.5718C10.9318 43.8489 10.9942 43.1186 11.0719 42.4014L11.4316 42.4404C11.3545 43.1522 11.2927 43.8769 11.2478 44.5944ZM105.362 42.3869C105.289 41.6736 105.19 41.3258 105.085 40.6155L105.443 40.5627C105.549 41.2783 105.639 41.8246 105.712 42.5434L105.362 42.3869ZM11.7133 40.2971L11.3557 40.2418C11.4666 39.5259 11.5954 38.8045 11.7386 38.0971L12.0932 38.1689C11.9511 38.8708 11.8233 39.5868 11.7133 40.2971ZM104.72 38.485C104.582 37.7792 104.426 37.0687 104.257 36.3733L104.608 36.2878C104.779 36.9885 104.936 37.7045 105.075 38.4156L104.72 38.485ZM12.5704 36.0605L12.2194 35.9725C12.3951 35.2717 12.5897 34.565 12.7978 33.8721L13.1443 33.9762C12.9379 34.6638 12.7448 35.365 12.5704 36.0605ZM103.697 34.285C103.495 33.596 103.275 32.903 103.042 32.2249L103.384 32.1072C103.619 32.7905 103.841 33.4891 104.044 34.1832L103.697 34.285ZM13.816 31.9149L13.4746 31.795C13.7151 31.1109 13.9747 30.4237 14.2463 29.7522L14.5818 29.8879C14.3123 30.5541 14.0546 31.2362 13.816 31.9149ZM102.292 30.1971C102.028 29.5312 101.745 28.8629 101.452 28.2107L101.782 28.0621C102.078 28.7194 102.362 29.3928 102.628 30.0638L102.292 30.1971ZM15.44 27.899L15.1112 27.7479C15.4134 27.0898 15.7351 26.4298 16.0672 25.7863L16.3888 25.9522C16.0591 26.5908 15.7399 27.2458 15.44 27.899ZM100.521 26.2643C100.197 25.6255 99.8541 24.9854 99.5013 24.3619L99.8162 24.1837C100.172 24.8119 100.517 25.4569 100.844 26.1006L100.521 26.2643ZM17.426 24.0517L17.1124 23.8711C17.4733 23.2444 17.854 22.617 18.2438 22.0065L18.5488 22.2012C18.1619 22.8071 17.7841 23.4297 17.426 24.0517ZM98.3953 22.5075C98.013 21.8988 97.6126 21.2925 97.2054 20.7052L97.5025 20.499C97.913 21.0908 98.3165 21.7018 98.7017 22.3151L98.3953 22.5075ZM19.755 20.4046L19.4592 20.1961C19.8764 19.6045 20.3125 19.0148 20.7558 18.4434L21.0416 18.6652C20.6018 19.2323 20.1688 19.8175 19.755 20.4046ZM95.934 18.9586C95.4979 18.3875 95.0439 17.8198 94.584 17.2712L94.8614 17.0387C95.3246 17.5916 95.7822 18.1636 96.2216 18.739L95.934 18.9586ZM22.4061 16.9868L22.1306 16.7522C22.5987 16.2023 23.0866 15.6551 23.5807 15.1256L23.8452 15.3724C23.3549 15.8979 22.8707 16.4411 22.4061 16.9868ZM93.1585 15.6465C92.6725 15.1174 92.1682 14.593 91.6601 14.0881L91.9152 13.8314C92.4272 14.3403 92.9352 14.8686 93.4249 15.4016L93.1585 15.6465ZM25.3559 13.8257L25.1029 13.5671C25.6203 13.0609 26.1557 12.5604 26.6942 12.0797L26.9352 12.3496C26.4008 12.8267 25.8694 13.3233 25.3559 13.8257ZM90.0924 12.5991C89.5597 12.116 89.0097 11.6395 88.4577 11.1829L88.6885 10.9041C89.2445 11.3641 89.7987 11.8443 90.3355 12.3311L90.0924 12.5991ZM28.5796 10.947L28.3512 10.6664C28.9108 10.2107 29.4891 9.7612 30.0703 9.33046L30.2858 9.62109C29.709 10.0487 29.135 10.4947 28.5796 10.947ZM32.05 8.3748L31.8481 8.07462C32.447 7.67161 33.0636 7.27699 33.6809 6.90146L33.8689 7.21065C33.2564 7.58327 32.6445 7.97497 32.05 8.3748ZM35.7386 6.13114L35.5649 5.81364C36.1986 5.46691 36.8483 5.13051 37.496 4.81363L37.655 5.13873C37.0123 5.45313 36.3675 5.78697 35.7386 6.13114ZM79.4073 5.29279C78.7635 4.97203 78.104 4.66213 77.4471 4.37176L77.5933 4.04084C78.2554 4.33342 78.92 4.6457 79.5688 4.96894L79.4073 5.29279ZM39.6142 4.23545L39.4704 3.90347C40.1326 3.61645 40.81 3.34118 41.4837 3.08526L41.6121 3.4236C40.9436 3.6775 40.2714 3.95064 39.6142 4.23545ZM75.4458 3.54172C74.7758 3.28191 74.0901 3.03403 73.4076 2.80505L73.5228 2.46194C74.2105 2.69277 74.9015 2.94251 75.5766 3.20443L75.4458 3.54172ZM43.6503 2.70284L43.5376 2.35902C44.2252 2.13358 44.9268 1.9213 45.6228 1.72827L45.7195 2.07686C45.0289 2.26847 44.3327 2.47908 43.6503 2.70284ZM71.3426 2.16485C70.6525 1.96812 69.9486 1.7849 69.2505 1.62032L69.3336 1.2682C70.0371 1.43401 70.7463 1.61864 71.4419 1.81679L71.3426 2.16485ZM47.8155 1.54691L47.7349 1.19417C48.4398 1.03313 49.158 0.886393 49.8692 0.758124L49.9335 1.11413C49.2276 1.24152 48.515 1.3871 47.8155 1.54691ZM67.1355 1.17297C66.4309 1.04072 65.7132 0.923055 65.0023 0.82323L65.0524 0.464922C65.7689 0.565543 66.4922 0.684095 67.2023 0.817312L67.1355 1.17297ZM52.0693 0.779237L52.0214 0.420577C52.7377 0.324993 53.4661 0.244604 54.1864 0.181882L54.2179 0.542309C53.503 0.604676 52.7803 0.684352 52.0693 0.779237ZM62.8551 0.571638C62.1423 0.504499 61.4169 0.452732 60.6987 0.418015L60.7164 0.0565279C61.4399 0.0915993 62.1708 0.143719 62.889 0.211396L62.8551 0.571638ZM56.3755 0.403527L56.3603 0.0420484C57.0253 0.0143098 57.7031 0.000177302 58.375 0L58.5388 0.00026364L58.5377 0.362104L58.375 0.36184C57.7082 0.362009 57.0354 0.376053 56.3755 0.403527Z" fill="#3F3D56"/>
<path d="M163.595 118.013H30.9802V118.375H163.595V118.013Z" fill="#3F3D56"/>
<path d="M108.597 57.1754L110.406 85.218C110.406 85.218 114.748 96.2541 114.567 106.748C114.567 106.748 112.939 110.909 114.206 111.632C115.472 112.356 116.196 112.899 115.472 113.442C114.748 113.984 114.206 115.251 114.748 115.613C115.291 115.974 115.472 116.517 115.291 116.517H109.863C109.863 116.517 110.949 113.803 109.321 113.08C107.692 112.356 108.597 110.547 108.597 110.547L96.4754 75.0865L86.8866 107.652C86.8866 107.652 88.5149 108.738 87.2484 109.28C85.982 109.823 85.4392 108.738 85.982 109.823C86.5248 110.909 85.8011 111.451 85.8011 111.632C85.8011 111.813 80.3735 111.09 80.3735 111.09C80.3735 111.09 83.0873 108.738 81.8208 108.195C80.5544 107.652 80.0116 107.109 80.3735 106.748C80.7353 106.386 82.1827 102.948 82.1827 102.948C82.1827 102.948 82.9064 89.9219 83.0873 89.3792C83.2682 88.8364 83.0873 86.3035 83.0873 85.0371C83.0873 83.7706 82.9064 78.7049 83.4491 77.4384C83.9919 76.172 84.5346 60.6129 87.4294 58.8037C90.3241 56.9945 108.597 57.1754 108.597 57.1754Z" fill="#2F2E41"/>
<path d="M85.6201 110.728C85.6201 110.728 89.2385 118.145 86.7057 119.05C84.1728 119.955 80.9162 119.231 80.1925 120.317C79.4689 121.402 71.5084 122.668 71.3274 119.955C71.1465 117.241 80.0116 112.175 80.0116 112.175L81.1664 110.316L85.6201 110.728Z" fill="#2F2E41"/>
<path d="M114.929 116.155C114.929 116.155 118.548 123.573 116.015 124.478C113.482 125.382 110.225 124.659 109.502 125.744C108.778 126.83 100.817 128.096 100.637 125.382C100.456 122.668 109.321 117.603 109.321 117.603L110.475 115.743L114.929 116.155Z" fill="#2F2E41"/>
<path d="M98.194 23.0719C101.491 23.0719 104.164 20.3989 104.164 17.1015C104.164 13.8042 101.491 11.1312 98.194 11.1312C94.8967 11.1312 92.2236 13.8042 92.2236 17.1015C92.2236 20.3989 94.8967 23.0719 98.194 23.0719Z" fill="#A0616A"/>
<path d="M102.265 20.2676L101.541 25.5143L96.1136 29.6754L94.6663 27.6853V20.8103L102.265 20.2676Z" fill="#A0616A"/>
<path d="M93.7615 26.9616C93.7615 26.9616 99.37 27.5044 102.265 25.5143L108.054 59.7082C108.054 59.7082 87.6102 61.3365 86.7056 60.251V49.5767L90.324 32.2083L93.7615 26.9616Z" fill="#3F3D56"/>
<path d="M101.767 23.8795L103.712 25.5143C103.712 25.5143 111.673 26.7807 111.13 28.9518L108.959 54.6424L109.683 63.3266C109.683 63.3266 103.531 61.6983 98.8274 63.3266C94.1234 64.9549 97.8606 28.336 97.8606 28.336C97.8606 28.336 102.173 24.4157 101.767 23.8795Z" fill="#D0CDE1"/>
<path d="M94.6662 25.8597C94.6662 25.8597 88.8767 30.0373 88.153 32.7511C87.4294 35.4649 85.0774 64.0503 85.0774 64.0503C85.0774 64.0503 86.1629 63.5075 86.7057 64.4121C87.2484 65.3167 95.5708 27.2907 94.6662 25.8597Z" fill="#D0CDE1"/>
<path d="M92.2266 16.8414C92.2266 16.8414 91.5803 15.8719 91.8289 14.8279C91.9774 14.2351 92.0361 13.6234 92.0029 13.0132C92.0029 13.0132 92.5249 11.3228 93.047 10.3781C93.569 9.4335 93.3204 9.03575 94.9611 8.73745C96.6018 8.43914 95.9306 6.30129 100.256 8.61316C100.402 8.81691 100.605 8.97287 100.839 9.06135C101.074 9.14984 101.329 9.16688 101.574 9.11033C102.468 8.93631 102.792 10.1793 102.792 10.1793C102.792 10.1793 103.388 9.83123 103.612 10.3284C103.836 10.8256 105.431 10.03 105.431 13.386C105.431 16.7419 103.616 19.7396 103.616 19.7396C103.616 19.7396 103.749 14.0945 100.79 13.5228C97.8323 12.951 94.6504 11.2855 93.8797 13.4233C93.4638 14.6232 92.909 15.7704 92.2266 16.8414Z" fill="#2F2E41"/>
<path d="M103.68 18.1836C104.003 18.1836 104.264 17.8352 104.264 17.4056C104.264 16.9759 104.003 16.6276 103.68 16.6276C103.358 16.6276 103.097 16.9759 103.097 17.4056C103.097 17.8352 103.358 18.1836 103.68 18.1836Z" fill="#A0616A"/>
<path d="M79.1594 73.354C77.7278 72.4931 76.0017 72.5589 75.3455 72.6246C75.5954 73.2347 76.3452 74.791 77.7768 75.6523C79.2119 76.5154 80.9357 76.4477 81.591 76.3824C81.3412 75.7724 80.5913 74.2156 79.1594 73.354Z" fill="#D0CDE1"/>
<path d="M85.8866 90.4373H76.939C76.405 90.4373 75.893 90.6494 75.5154 91.0269C75.1379 91.4045 74.9258 91.9165 74.9258 92.4505C74.9258 92.9844 75.1379 93.4965 75.5154 93.874C75.893 94.2516 76.405 94.4637 76.939 94.4637H85.8866C86.4202 94.4632 86.9317 94.2508 87.3089 93.8733C87.686 93.4958 87.8979 92.9841 87.8979 92.4505C87.8979 91.9169 87.686 91.4051 87.3089 91.0276C86.9317 90.6501 86.4202 90.4378 85.8866 90.4373Z" fill="#D0CDE1"/>
<path d="M126.404 69.1867H76.238C75.6545 69.1867 75.0766 69.3016 74.5375 69.525C73.9983 69.7483 73.5084 70.0756 73.0958 70.4883C72.6831 70.9009 72.3558 71.3908 72.1325 71.93C71.9091 72.4691 71.7942 73.047 71.7942 73.6306V98.0726C71.7942 99.2512 72.2624 100.381 73.0958 101.215C73.9291 102.048 75.0595 102.516 76.238 102.516H126.404C126.988 102.516 127.566 102.402 128.105 102.178C128.644 101.955 129.134 101.628 129.547 101.215C129.959 100.802 130.287 100.312 130.51 99.7732C130.733 99.234 130.848 98.6562 130.848 98.0726V73.6306C130.848 73.047 130.733 72.4691 130.51 71.93C130.287 71.3908 129.959 70.9009 129.547 70.4883C129.134 70.0756 128.644 69.7483 128.105 69.525C127.566 69.3017 126.988 69.1867 126.404 69.1867ZM74.9968 72.2181C75.0959 72.2002 77.445 71.8004 79.3901 72.9709C81.3352 74.1411 82.0825 76.404 82.1133 76.4997L82.1919 76.7437L81.9395 76.7884C81.5794 76.8446 81.2153 76.8714 80.8509 76.8684C79.9675 76.8684 78.6874 76.7222 77.5461 76.0354C75.6011 74.8654 74.8539 72.6026 74.8231 72.5069L74.7444 72.2629L74.9968 72.2181ZM85.8866 94.911H76.9391C76.2865 94.911 75.6606 94.6518 75.1992 94.1903C74.7377 93.7289 74.4785 93.103 74.4785 92.4504C74.4785 91.7978 74.7377 91.172 75.1992 90.7105C75.6606 90.2491 76.2865 89.9898 76.9391 89.9898H85.8866C86.5392 89.9898 87.1651 90.2491 87.6265 90.7105C88.088 91.172 88.3472 91.7978 88.3472 92.4504C88.3472 93.103 88.088 93.7289 87.6265 94.1903C87.1651 94.6518 86.5392 94.911 85.8866 94.911ZM126.598 94.4636C126.596 95.1749 126.313 95.8564 125.81 96.3594C125.307 96.8623 124.625 97.1458 123.914 97.1479H117.203C116.492 97.1458 115.81 96.8623 115.307 96.3594C114.804 95.8564 114.521 95.1749 114.519 94.4636V90.4372C114.521 89.7259 114.804 89.0444 115.307 88.5414C115.81 88.0385 116.492 87.755 117.203 87.7529H123.914C124.625 87.755 125.307 88.0385 125.81 88.5414C126.313 89.0444 126.596 89.7259 126.598 90.4372L126.598 94.4636Z" fill="#D0CDE1"/>
<path d="M119.328 93.6807H116.42C116.213 93.6807 116.014 93.7632 115.867 93.91C115.72 94.0569 115.637 94.256 115.637 94.4636C115.637 94.6713 115.72 94.8704 115.867 95.0172C116.014 95.1641 116.213 95.2466 116.42 95.2466H119.328C119.536 95.2466 119.735 95.1641 119.882 95.0172C120.029 94.8704 120.111 94.6713 120.111 94.4636C120.111 94.256 120.029 94.0569 119.882 93.91C119.735 93.7632 119.536 93.6807 119.328 93.6807ZM119.328 94.7992H116.42C116.376 94.7993 116.333 94.7907 116.292 94.7739C116.251 94.757 116.214 94.7323 116.183 94.7012C116.151 94.67 116.127 94.633 116.11 94.5922C116.093 94.5515 116.084 94.5078 116.084 94.4636C116.084 94.4195 116.093 94.3758 116.11 94.3351C116.127 94.2943 116.151 94.2573 116.183 94.2261C116.214 94.1949 116.251 94.1702 116.292 94.1534C116.333 94.1366 116.376 94.128 116.42 94.1281H119.328C119.372 94.128 119.416 94.1366 119.457 94.1534C119.498 94.1702 119.535 94.1949 119.566 94.2261C119.597 94.2573 119.622 94.2943 119.639 94.3351C119.656 94.3758 119.665 94.4195 119.665 94.4636C119.665 94.5078 119.656 94.5515 119.639 94.5922C119.622 94.633 119.597 94.67 119.566 94.7012C119.535 94.7323 119.498 94.757 119.457 94.7739C119.416 94.7907 119.372 94.7993 119.328 94.7992Z" fill="#D0CDE1"/>
<path d="M124.697 93.6807H121.789C121.686 93.6806 121.584 93.7007 121.489 93.74C121.394 93.7793 121.307 93.8369 121.234 93.9096C121.162 93.9823 121.104 94.0687 121.064 94.1638C121.025 94.2588 121.005 94.3607 121.005 94.4636C121.005 94.5666 121.025 94.6685 121.064 94.7635C121.104 94.8586 121.162 94.9449 121.234 95.0177C121.307 95.0904 121.394 95.148 121.489 95.1873C121.584 95.2266 121.686 95.2467 121.789 95.2466H124.697C124.904 95.2466 125.103 95.1641 125.25 95.0172C125.397 94.8704 125.48 94.6713 125.48 94.4636C125.48 94.256 125.397 94.0569 125.25 93.91C125.103 93.7632 124.904 93.6807 124.697 93.6807ZM124.697 94.7992H121.789C121.745 94.7993 121.701 94.7907 121.66 94.7739C121.619 94.7571 121.582 94.7323 121.551 94.7012C121.52 94.67 121.495 94.633 121.478 94.5922C121.461 94.5515 121.452 94.5078 121.452 94.4636C121.452 94.4195 121.461 94.3758 121.478 94.3351C121.495 94.2943 121.52 94.2573 121.551 94.2261C121.582 94.1949 121.619 94.1702 121.66 94.1534C121.701 94.1366 121.745 94.128 121.789 94.1281H124.697C124.786 94.1283 124.871 94.1638 124.933 94.2267C124.996 94.2896 125.031 94.3748 125.031 94.4636C125.031 94.5525 124.996 94.6377 124.933 94.7006C124.871 94.7635 124.786 94.799 124.697 94.7992Z" fill="#D0CDE1"/>
<path d="M119.328 91.6675H116.42C116.213 91.6675 116.014 91.75 115.867 91.8969C115.72 92.0437 115.637 92.2428 115.637 92.4505C115.637 92.6581 115.72 92.8572 115.867 93.0041C116.014 93.1509 116.213 93.2334 116.42 93.2334H119.328C119.431 93.2335 119.533 93.2134 119.628 93.1741C119.723 93.1348 119.81 93.0772 119.883 93.0045C119.956 92.9318 120.013 92.8454 120.053 92.7503C120.092 92.6553 120.112 92.5534 120.112 92.4505C120.112 92.3475 120.092 92.2456 120.053 92.1506C120.013 92.0555 119.956 91.9691 119.883 91.8964C119.81 91.8237 119.723 91.7661 119.628 91.7268C119.533 91.6875 119.431 91.6674 119.328 91.6675ZM119.328 92.786H116.42C116.331 92.786 116.246 92.7506 116.183 92.6877C116.12 92.6248 116.085 92.5394 116.085 92.4505C116.085 92.3615 116.12 92.2761 116.183 92.2132C116.246 92.1503 116.331 92.1149 116.42 92.1149H119.328C119.417 92.1149 119.503 92.1503 119.566 92.2132C119.629 92.2761 119.664 92.3615 119.664 92.4505C119.664 92.5394 119.629 92.6248 119.566 92.6877C119.503 92.7506 119.417 92.786 119.328 92.786Z" fill="#D0CDE1"/>
<path d="M124.697 91.6675H121.789C121.686 91.6674 121.584 91.6875 121.489 91.7268C121.394 91.7661 121.307 91.8237 121.234 91.8964C121.162 91.9691 121.104 92.0555 121.064 92.1506C121.025 92.2456 121.005 92.3475 121.005 92.4505C121.005 92.5534 121.025 92.6553 121.064 92.7503C121.104 92.8454 121.162 92.9318 121.234 93.0045C121.307 93.0772 121.394 93.1348 121.489 93.1741C121.584 93.2134 121.686 93.2335 121.789 93.2334H124.697C124.904 93.2334 125.103 93.1509 125.25 93.0041C125.397 92.8572 125.48 92.6581 125.48 92.4505C125.48 92.2428 125.397 92.0437 125.25 91.8969C125.103 91.75 124.904 91.6675 124.697 91.6675ZM124.697 92.786H121.789C121.7 92.786 121.614 92.7506 121.551 92.6877C121.489 92.6248 121.453 92.5394 121.453 92.4505C121.453 92.3615 121.489 92.2761 121.551 92.2132C121.614 92.1503 121.7 92.1149 121.789 92.1149H124.697C124.786 92.1149 124.871 92.1503 124.934 92.2132C124.997 92.2761 125.032 92.3615 125.032 92.4505C125.032 92.5394 124.997 92.6248 124.934 92.6877C124.871 92.7506 124.786 92.786 124.697 92.786Z" fill="#D0CDE1"/>
<path d="M119.328 89.6543H116.42C116.213 89.6543 116.014 89.7368 115.867 89.8836C115.72 90.0304 115.637 90.2296 115.637 90.4372C115.637 90.6449 115.72 90.844 115.867 90.9908C116.014 91.1376 116.213 91.2201 116.42 91.2201H119.328C119.536 91.2201 119.735 91.1376 119.882 90.9908C120.029 90.844 120.111 90.6449 120.111 90.4372C120.111 90.2296 120.029 90.0304 119.882 89.8836C119.735 89.7368 119.536 89.6543 119.328 89.6543ZM119.328 90.7727H116.42C116.331 90.7727 116.246 90.7374 116.183 90.6745C116.12 90.6115 116.085 90.5262 116.085 90.4372C116.085 90.3482 116.12 90.2629 116.183 90.2C116.246 90.137 116.331 90.1017 116.42 90.1017H119.328C119.417 90.1017 119.503 90.137 119.566 90.2C119.629 90.2629 119.664 90.3482 119.664 90.4372C119.664 90.5262 119.629 90.6115 119.566 90.6745C119.503 90.7374 119.417 90.7727 119.328 90.7727Z" fill="#D0CDE1"/>
<path d="M124.697 89.6543H121.789C121.686 89.6541 121.584 89.6743 121.489 89.7136C121.394 89.7528 121.307 89.8105 121.234 89.8832C121.162 89.9559 121.104 90.0423 121.064 90.1373C121.025 90.2324 121.005 90.3343 121.005 90.4372C121.005 90.5401 121.025 90.642 121.064 90.7371C121.104 90.8322 121.162 90.9185 121.234 90.9912C121.307 91.064 121.394 91.1216 121.489 91.1609C121.584 91.2001 121.686 91.2203 121.789 91.2201H124.697C124.904 91.2198 125.103 91.1372 125.25 90.9904C125.396 90.8436 125.478 90.6446 125.478 90.4372C125.478 90.2298 125.396 90.0308 125.25 89.884C125.103 89.7372 124.904 89.6546 124.697 89.6543ZM124.697 90.7727H121.789C121.7 90.7727 121.614 90.7374 121.551 90.6745C121.489 90.6115 121.453 90.5262 121.453 90.4372C121.453 90.3482 121.489 90.2629 121.551 90.2C121.614 90.137 121.7 90.1017 121.789 90.1017H124.697C124.786 90.1017 124.871 90.137 124.934 90.2C124.997 90.2629 125.032 90.3482 125.032 90.4372C125.032 90.5262 124.997 90.6115 124.934 90.6745C124.871 90.7374 124.786 90.7727 124.697 90.7727Z" fill="#D0CDE1"/>
<path d="M110.587 63.6885L109.29 67.9205C109.29 67.9205 108.959 75.8102 104.617 74.7246C100.275 73.6391 105.883 64.4122 105.883 64.4122L107.15 62.4221L110.587 63.6885Z" fill="#A0616A"/>
<path d="M85.9819 63.6885L84.685 67.9205C84.685 67.9205 84.3537 75.8102 80.0116 74.7246C75.6695 73.6391 81.278 64.4122 81.278 64.4122L82.5445 62.4221L85.9819 63.6885Z" fill="#A0616A"/>
<path d="M109.683 27.6853C109.683 27.6853 112.577 26.9616 113.482 31.8465C114.387 36.7313 115.472 50.6622 115.472 50.6622L111.13 65.3167C111.13 65.3167 106.788 62.9648 105.883 63.3266L109.3 50.6042L106.426 37.6359C106.426 37.6359 108.959 27.6853 109.683 27.6853Z" fill="#D0CDE1"/>
<path opacity="0.15" d="M105.474 37.8834L109.273 50.5478L105.474 63.3932L107.645 50.5478L105.474 37.8834Z" fill="black"/>
<path d="M88.153 37.636L81.6399 63.3267C81.6399 63.3267 85.0755 64.4605 86.3419 65.3651L88.153 37.636Z" fill="#D0CDE1"/>
<path d="M19.8288 102.199C29.8208 102.199 37.9209 94.0989 37.9209 84.107C37.9209 74.115 29.8208 66.015 19.8288 66.015C9.83689 66.015 1.73682 74.115 1.73682 84.107C1.73682 94.0989 9.83689 102.199 19.8288 102.199Z" fill="#3F3D56"/>
<path opacity="0.1" d="M19.8287 99.6661C28.4217 99.6661 35.3878 92.7001 35.3878 84.107C35.3878 75.5139 28.4217 68.5479 19.8287 68.5479C11.2356 68.5479 4.26953 75.5139 4.26953 84.107C4.26953 92.7001 11.2356 99.6661 19.8287 99.6661Z" fill="black"/>
<path d="M19.0832 93.2883V91.0237C17.9385 91.0014 16.7542 90.5977 16.0635 90.0371L16.5371 88.5349C17.358 89.1501 18.3535 89.4878 19.3793 89.499C20.7806 89.499 21.728 88.5797 21.728 87.3017C21.728 86.0685 20.9583 85.3062 19.4977 84.6335C17.4845 83.7367 16.2411 82.7052 16.2411 80.7546C16.2411 78.8935 17.4056 77.481 19.2214 77.1447V74.8801H20.4451V77.055C21.3576 77.0675 22.2476 77.3397 23.011 77.8397L22.5175 79.3196C21.7854 78.8184 20.9178 78.5525 20.0306 78.5572C18.5109 78.5572 17.9385 79.5886 17.9385 80.4855C17.9385 81.6514 18.6688 82.2343 20.3859 83.0416C22.4188 83.9833 23.4452 85.1492 23.4452 87.1447C23.4452 88.916 22.3596 90.5753 20.3267 90.9563V93.2883H19.0832Z" fill="#6C63FF"/>
<path d="M38.9408 120.908C26.1661 122.813 13.1795 122.813 0.404785 120.908V116.566C13.193 118.278 26.1525 118.278 38.9408 116.566V120.908Z" fill="#3F3D56"/>
<path d="M38.9408 114.214C26.1661 116.119 13.1795 116.119 0.404785 114.214V109.871C13.193 111.584 26.1525 111.584 38.9408 109.871V114.214Z" fill="#3F3D56"/>
<path d="M38.9408 107.52C26.1661 109.425 13.1795 109.425 0.404785 107.52V103.177C13.193 104.89 26.1525 104.89 38.9408 103.177V107.52Z" fill="#3F3D56"/>
</svg>
