<svg width="300" height="168" viewBox="0 0 300 168" fill="none" xmlns="http://www.w3.org/2000/svg"><g clip-path="url(#clip0_319_54)"><path d="M280 0H20C8.954 0 0 8.954 0 20v128c0 11.046 8.954 20 20 20h260c11.046 0 20-8.954 20-20V20c0-11.046-8.954-20-20-20z" fill="#fff"/><path d="M25.725 81.73c-1.74-.75-2.265-1.995-1.575-3.735L46.155 25.21c.63-1.47 1.695-2.205 3.195-2.205h.225c1.47.03 2.49.765 3.06 2.205l22.14 52.785c.75 1.74.24 2.985-1.53 3.735-1.74.69-2.97.18-3.69-1.53l-5.58-13.365H34.95L29.415 80.2c-.69 1.74-1.92 2.25-3.69 1.53zm11.52-20.565H61.59L49.35 31.96 37.245 61.165zM99.69 82c-4.77 0-8.295-1.14-10.575-3.42-2.28-2.28-3.42-5.805-3.42-10.575 0-4.8 1.14-8.34 3.42-10.62 2.28-2.28 5.805-3.42 10.575-3.42h20.025c-.12-3.69-1.005-6.255-2.655-7.695-1.62-1.44-4.41-2.16-8.37-2.16h-5.22c-3.54 0-6.15.345-7.83 1.035-1.65.66-2.715 1.815-3.195 3.465-.3.9-.675 1.56-1.125 1.98-.42.39-1.065.585-1.935.585-.93 0-1.665-.255-2.205-.765-.51-.54-.69-1.26-.54-2.16.57-3.42 2.235-5.91 4.995-7.47 2.76-1.56 6.705-2.34 11.835-2.34h5.22c5.76 0 9.975 1.35 12.645 4.05 2.7 2.67 4.05 6.885 4.05 12.645v24.03c0 1.89-.945 2.835-2.835 2.835-1.89 0-2.835-.945-2.835-2.835v-3.69C116.745 79.825 111.75 82 104.73 82h-5.04zm0-5.67h5.04c2.7 0 5.1-.285 7.2-.855 2.13-.57 3.87-1.515 5.22-2.835 1.38-1.32 2.235-3.105 2.565-5.355v-7.65H99.69c-3.21 0-5.4.585-6.57 1.755s-1.755 3.375-1.755 6.615c0 3.21.585 5.4 1.755 6.57s3.36 1.755 6.57 1.755zM32 137c-3.083 0-5.4-.642-6.95-1.925-1.55-1.283-2.433-3.317-2.65-6.1-.033-.533.083-.942.35-1.225.267-.283.658-.425 1.175-.425.983 0 1.525.525 1.625 1.575.15 1.883.708 3.183 1.675 3.9.983.7 2.575 1.05 4.775 1.05h2.75c1.667 0 2.975-.2 3.925-.6.95-.4 1.617-1.067 2-2 .4-.95.6-2.258.6-3.925V105.8c0-1.05.525-1.575 1.575-1.575 1.05 0 1.575.525 1.575 1.575v21.525c0 3.367-.775 5.825-2.325 7.375-1.533 1.533-3.983 2.3-7.35 2.3H32zm41.977-24.2c1.05 0 1.575.525 1.575 1.575v21.05c0 1.05-.525 1.575-1.575 1.575-1.05 0-1.575-.525-1.575-1.575v-1.875c-1.633 2.3-4.408 3.45-8.325 3.45h-1.4c-3.183 0-5.525-.75-7.025-2.25s-2.25-3.842-2.25-7.025v-13.35c0-1.05.525-1.575 1.575-1.575 1.05 0 1.575.525 1.575 1.575v13.35c0 2.3.442 3.9 1.325 4.8.9.883 2.5 1.325 4.8 1.325h1.4c2.384 0 4.317-.35 5.8-1.05 1.5-.717 2.342-1.808 2.525-3.275v-15.15c0-1.05.525-1.575 1.575-1.575zM86.849 137c-1.05 0-1.575-.525-1.575-1.575v-21.05c0-1.05.525-1.575 1.575-1.575 1.05 0 1.575.525 1.575 1.575v3.2a9.12 9.12 0 013.775-3.55c1.6-.817 3.475-1.225 5.625-1.225 1.05 0 1.575.525 1.575 1.575 0 1.05-.525 1.575-1.575 1.575-2.933 0-5.2.625-6.8 1.875-1.584 1.25-2.45 2.992-2.6 5.225v12.375c0 1.05-.525 1.575-1.575 1.575zm23.864 0c-2.65 0-4.608-.633-5.875-1.9-1.267-1.267-1.9-3.225-1.9-5.875 0-2.667.633-4.633 1.9-5.9 1.267-1.267 3.225-1.9 5.875-1.9h11.125c-.067-2.05-.558-3.475-1.475-4.275-.9-.8-2.45-1.2-4.65-1.2h-2.9c-1.967 0-3.417.192-4.35.575-.917.367-1.508 1.008-1.775 1.925-.167.5-.375.867-.625 1.1-.233.217-.592.325-1.075.325-.517 0-.925-.142-1.225-.425-.283-.3-.383-.7-.3-1.2.317-1.9 1.242-3.283 2.775-4.15 1.533-.867 3.725-1.3 6.575-1.3h2.9c3.2 0 5.542.75 7.025 2.25 1.5 1.483 2.25 3.825 2.25 7.025v13.35c0 1.05-.525 1.575-1.575 1.575-1.05 0-1.575-.525-1.575-1.575v-2.05c-1.65 2.417-4.425 3.625-8.325 3.625h-2.8zm0-3.15h2.8c1.5 0 2.833-.158 4-.475 1.183-.317 2.15-.842 2.9-1.575.767-.733 1.242-1.725 1.425-2.975v-4.25h-11.125c-1.783 0-3 .325-3.65.975-.65.65-.975 1.875-.975 3.675 0 1.783.325 3 .975 3.65.65.65 1.867.975 3.65.975z" fill="#4B4B4B"/></g><defs><clipPath id="clip0_319_54"><path fill="#fff" d="M0 0h300v168H0z"/></clipPath></defs></svg>