<svg width="300" height="168" viewBox="0 0 300 168" fill="none" xmlns="http://www.w3.org/2000/svg"><g clip-path="url(#clip0_319_54)"><path d="M280 0H20C8.954 0 0 8.954 0 20v128c0 11.046 8.954 20 20 20h260c11.046 0 20-8.954 20-20V20c0-11.046-8.954-20-20-20z" fill="#fff"/><path d="M76.53 85.86c.18.6.27 1.05.27 1.35 0 1.2-.48 2.13-1.44 2.79-.96.6-2.16.9-3.6.9-1.02 0-1.92-.24-2.7-.72-.78-.42-1.29-1.02-1.53-1.8-1.44-4.86-2.7-9.27-3.78-13.23l-23.22-.09-3.96 12.96c-.54 1.86-1.98 2.79-4.32 2.79-1.32 0-2.49-.33-3.51-.99-1.02-.72-1.53-1.62-1.53-2.7 0-.36.09-.81.27-1.35 6-17.94 10.59-31.74 13.77-41.4l2.52-7.83c1.32-3.84 2.64-6.54 3.96-8.1 1.32-1.62 3.03-2.43 5.13-2.43 1.98 0 3.57.72 4.77 2.16 1.26 1.44 2.46 3.93 3.6 7.47 2.88 9.06 6.06 19.41 9.54 31.05h2.52c1.2 0 2.1.39 2.7 1.17.66.72.99 1.74.99 3.06 0 2.82-.99 4.23-2.97 4.23h-.72l3.24 10.71zM61.32 66.6l-.54-2.07c-2.34-8.28-4.2-14.7-5.58-19.26-.18-.54-.48-1.53-.9-2.97-.42-1.44-.78-2.46-1.08-3.06-.24-.6-.48-.9-.72-.9-.3 0-.6.36-.9 1.08-.24.66-.6 1.86-1.08 3.6-.06.3-.15.6-.27.9-.12.3-.24.66-.36 1.08-.24.84-.45 1.47-.63 1.89-.66 2.1-1.47 4.71-2.43 7.83-.96 3.06-2.16 6.96-3.6 11.7l18.09.18zm70.32 16.2c.9.12 1.59.42 2.07.9.54.48.81 1.29.81 2.43 0 1.08-.27 1.98-.81 2.7-.54.72-1.29 1.08-2.25 1.08-2.46 0-4.32-.36-5.58-1.08-1.2-.72-2.31-2.07-3.33-4.05-2.52 4.08-7.2 6.12-14.04 6.12-6.96 0-12.09-2.1-15.39-6.3-3.3-4.26-4.95-9.54-4.95-15.84 0-4.2.84-8.07 2.52-11.61 1.68-3.54 4.14-6.36 7.38-8.46 3.24-2.1 7.02-3.15 11.34-3.15 2.76 0 5.19.54 7.29 1.62 2.16 1.08 3.78 2.55 4.86 4.41l.27-2.25c.24-2.16 1.53-3.24 3.87-3.24 1.56 0 2.67.36 3.33 1.08.66.66.93 1.5.81 2.52-.6 4.5-.96 7.89-1.08 10.17-.18 2.16-.27 4.98-.27 8.46v5.94c0 3.12.15 5.28.45 6.48.36 1.2 1.26 1.89 2.7 2.07zm-11.97-8.55c.06-2.7.09-6.39.09-11.07 0-2.46-.54-4.47-1.62-6.03-1.02-1.56-2.31-2.7-3.87-3.42-1.5-.72-3.03-1.08-4.59-1.08-2.7 0-5.01.81-6.93 2.43-1.86 1.56-3.27 3.57-4.23 6.03-.9 2.46-1.35 5.01-1.35 7.65 0 4.02.93 7.53 2.79 10.53 1.92 2.94 4.89 4.41 8.91 4.41 3.18 0 5.76-.81 7.74-2.43 1.98-1.62 3-3.96 3.06-7.02zM57.1 130.5c.067 4.067.1 7.183.1 9.35 0 .767-.217 1.367-.65 1.8-.4.433-1 .65-1.8.65s-1.433-.2-1.9-.6c-.433-.433-.65-1-.65-1.7v-14.1c0-4.633-.167-8.05-.5-10.25-.333-2.2-.767-3.3-1.3-3.3-.467 0-1.117.75-1.95 2.25a37.432 37.432 0 00-2.1 4.4c-.867 2.067-1.717 5.033-2.55 8.9-.3 1.267-1.233 1.9-2.8 1.9-1.5 0-2.417-.583-2.75-1.75-.233-.7-.5-1.65-.8-2.85-.7-2.667-1.317-4.7-1.85-6.1a31.576 31.576 0 00-2.1-4.6c-.833-1.5-1.45-2.25-1.85-2.25-.967 0-1.55 4.433-1.75 13.3-.033 1.6-.05 3.917-.05 6.95v7.5c0 .633-.233 1.15-.7 1.55-.433.367-1.067.55-1.9.55-.867 0-1.483-.217-1.85-.65-.367-.433-.55-1.1-.55-2 0-1.767.033-4.217.1-7.35l.05-6.65c0-6.633.467-11.467 1.4-14.5.967-3.033 2.517-4.55 4.65-4.55 2.433 0 4.4 1.55 5.9 4.65 1.5 3.067 2.833 6.933 4 11.6 1.033-4.267 2.417-8.033 4.15-11.3 1.767-3.3 3.85-4.95 6.25-4.95 1.467 0 2.6.75 3.4 2.25.833 1.467 1.417 3.6 1.75 6.4.333 2.767.517 6.317.55 10.65l.05 4.8zm35.69 7.5c.5.067.882.233 1.15.5.3.267.45.717.45 1.35 0 .6-.15 1.1-.45 1.5-.3.4-.718.6-1.25.6-1.368 0-2.4-.2-3.1-.6-.668-.4-1.284-1.15-1.85-2.25-1.4 2.267-4 3.4-7.8 3.4-3.868 0-6.718-1.167-8.55-3.5-1.834-2.367-2.75-5.3-2.75-8.8 0-2.333.466-4.483 1.4-6.45.932-1.967 2.3-3.533 4.1-4.7 1.8-1.167 3.9-1.75 6.3-1.75 1.532 0 2.882.3 4.05.9 1.2.6 2.1 1.417 2.7 2.45l.15-1.25c.132-1.2.85-1.8 2.15-1.8.866 0 1.482.2 1.85.6.366.367.516.833.45 1.4-.334 2.5-.534 4.383-.6 5.65-.1 1.2-.15 2.767-.15 4.7v3.3c0 1.733.082 2.933.25 3.6.2.667.7 1.05 1.5 1.15zm-6.65-4.75c.032-1.5.05-3.55.05-6.15 0-1.367-.3-2.483-.9-3.35-.568-.867-1.284-1.5-2.15-1.9a5.84 5.84 0 00-2.55-.6c-1.5 0-2.784.45-3.85 1.35-1.034.867-1.818 1.983-2.35 3.35-.5 1.367-.75 2.783-.75 4.25 0 2.233.516 4.183 1.55 5.85 1.066 1.633 2.716 2.45 4.95 2.45 1.766 0 3.2-.45 4.3-1.35 1.1-.9 1.666-2.2 1.7-3.9zm22.155 8.3c-.733 0-1.317-.2-1.75-.6-.433-.4-.65-.917-.65-1.55l-.3-34.8c0-.667.233-1.2.7-1.6.5-.4 1.117-.6 1.85-.6.733 0 1.317.2 1.75.6.433.4.65.917.65 1.55l.25 34.8c0 .667-.233 1.2-.7 1.6-.467.4-1.067.6-1.8.6zm19.992-27.1c-1.034 0-1.884-.333-2.55-1-.667-.7-1-1.567-1-2.6 0-1 .333-1.833 1-2.5.7-.667 1.583-1 2.65-1 1.066 0 1.916.317 2.55.95.666.633 1 1.467 1 2.5s-.35 1.9-1.05 2.6c-.667.7-1.534 1.05-2.6 1.05zm-.7 27.25c-.767 0-1.384-.183-1.85-.55-.467-.367-.7-.883-.7-1.55l.5-20.3c0-.667.233-1.183.7-1.55.466-.4 1.066-.6 1.8-.6.733 0 1.333.2 1.8.6.5.4.75.933.75 1.6l-.5 20.3c-.034.667-.284 1.183-.75 1.55-.434.333-1.017.5-1.75.5z" fill="#4B4B4B"/></g><defs><clipPath id="clip0_319_54"><path fill="#fff" d="M0 0h300v168H0z"/></clipPath></defs></svg>