<svg width="300" height="168" viewBox="0 0 300 168" fill="none" xmlns="http://www.w3.org/2000/svg"><g clip-path="url(#clip0_319_63)"><path d="M280 0H20C8.954 0 0 8.954 0 20v128c0 11.046 8.954 20 20 20h260c11.046 0 20-8.954 20-20V20c0-11.046-8.954-20-20-20z" fill="#fff"/><path d="M22.26 85l28.08-63.45h7.29L86.16 85h-8.64l-7.83-18 3.6 2.16H34.68L38.64 67l-7.83 18h-8.55zm31.59-54.09l-14.04 33.3-2.16-1.89h32.67l-1.71 1.89-14.4-33.3h-.36zm57.715 54.9c-3.96 0-7.44-.93-10.44-2.79-3-1.86-5.34-4.56-7.02-8.1-1.68-3.54-2.52-7.74-2.52-12.6 0-4.86.84-9.03 2.52-12.51 1.68-3.54 4.02-6.24 7.02-8.1 3-1.86 6.48-2.79 10.44-2.79 4.02 0 7.5 1.02 10.44 3.06 3 1.98 4.98 4.71 5.94 8.19h-1.08l.99-10.44h7.92l-.54 5.4c-.12 1.8-.18 3.57-.18 5.31V85h-8.19V74.65h.99c-.96 3.42-2.94 6.15-5.94 8.19-2.94 1.98-6.39 2.97-10.35 2.97zm1.89-6.48c4.08 0 7.35-1.44 9.81-4.32 2.46-2.88 3.69-7.11 3.69-12.69 0-5.58-1.23-9.78-3.69-12.6-2.46-2.82-5.73-4.23-9.81-4.23s-7.38 1.41-9.9 4.23c-2.46 2.82-3.69 7.02-3.69 12.6s1.23 9.81 3.69 12.69c2.46 2.88 5.76 4.32 9.9 4.32zM25.3 139v-35.25h4.1l13.9 31.3h-1.5l13.9-31.3h4.05V139H55.5v-29.05h1.55L44 139h-2.95L28 109.95h1.55V139H25.3zm56.516.45c-3.033 0-5.316-.817-6.85-2.45-1.5-1.633-2.25-4.15-2.25-7.55v-15.6h4.55v15.5c0 2.2.45 3.817 1.35 4.85.9 1.033 2.3 1.55 4.2 1.55 2.067 0 3.734-.683 5-2.05 1.3-1.4 1.95-3.25 1.95-5.55v-14.3h4.55V139h-4.4v-5.55h.65c-.7 1.9-1.816 3.383-3.35 4.45-1.533 1.033-3.333 1.55-5.4 1.55zm25.152-.45v-36.8h4.55V139h-4.55zm17.158 0v-25.15h4.55V139h-4.55zm-.4-30.65v-4.9h5.4v4.9h-5.4zm26.058 31.1c-2.033 0-3.933-.267-5.7-.8-1.733-.533-3.166-1.3-4.3-2.3l1.45-3.15a14.359 14.359 0 004.05 2.15c1.5.467 3.034.7 4.6.7 1.9 0 3.334-.35 4.3-1.05 1-.7 1.5-1.633 1.5-2.8 0-.933-.316-1.683-.95-2.25-.633-.567-1.633-.983-3-1.25l-4.75-.95c-2.133-.5-3.75-1.3-4.85-2.4-1.066-1.133-1.6-2.583-1.6-4.35 0-1.467.4-2.767 1.2-3.9.8-1.167 1.934-2.067 3.4-2.7 1.5-.667 3.25-1 5.25-1 1.834 0 3.534.267 5.1.8 1.6.533 2.917 1.317 3.95 2.35l-1.5 3.05c-1.033-.9-2.2-1.583-3.5-2.05-1.266-.5-2.566-.75-3.9-.75-1.933 0-3.366.383-4.3 1.15-.933.733-1.4 1.7-1.4 2.9 0 .9.284 1.65.85 2.25.567.567 1.484 1 2.75 1.3l4.75.95c2.234.467 3.917 1.233 5.05 2.3 1.134 1.067 1.7 2.483 1.7 4.25 0 1.567-.433 2.917-1.3 4.05-.833 1.133-2.016 2-3.55 2.6-1.5.6-3.266.9-5.3.9zm21.354-.45v-36.8h4.55v17.1h-.65c.733-1.933 1.917-3.4 3.55-4.4 1.633-1 3.517-1.5 5.65-1.5 3.033 0 5.267.817 6.7 2.45 1.467 1.633 2.2 4.1 2.2 7.4V139h-4.55v-15.5c0-2.233-.433-3.85-1.3-4.85-.867-1.033-2.283-1.55-4.25-1.55-2.2 0-3.983.683-5.35 2.05-1.333 1.367-2 3.183-2 5.45V139h-4.55z" fill="#4B4B4B"/></g><defs><clipPath id="clip0_319_63"><path fill="#fff" d="M0 0h300v168H0z"/></clipPath></defs></svg>