<svg width="300" height="168" viewBox="0 0 300 168" fill="none" xmlns="http://www.w3.org/2000/svg">
<g clip-path="url(#clip0_98_15)">
<mask id="mask0_98_15" style="mask-type:luminance" maskUnits="userSpaceOnUse" x="0" y="0" width="300" height="168">
<path d="M280 0H20C8.9543 0 0 8.9543 0 20V148C0 159.046 8.9543 168 20 168H280C291.046 168 300 159.046 300 148V20C300 8.9543 291.046 0 280 0Z" fill="white"/>
</mask>
<g mask="url(#mask0_98_15)">
<path d="M280 0H20C8.9543 0 0 8.9543 0 20V148C0 159.046 8.9543 168 20 168H280C291.046 168 300 159.046 300 148V20C300 8.9543 291.046 0 280 0Z" fill="white"/>
<path d="M38 -5H-16C-17.1046 -5 -18 -4.10457 -18 -3V171C-18 172.105 -17.1046 173 -16 173H38C39.1046 173 40 172.105 40 171V-3C40 -4.10457 39.1046 -5 38 -5Z" fill="#DCDCDC"/>
<path d="M287 76H49C47.8954 76 47 76.8954 47 78V157C47 158.105 47.8954 159 49 159H287C288.105 159 289 158.105 289 157V78C289 76.8954 288.105 76 287 76Z" fill="#DCDCDC"/>
<path d="M80.0859 129V105H85.1602V124.816H95.4492V129H80.0859ZM98.7158 129V111H103.708V129H98.7158ZM101.224 108.68C100.481 108.68 99.8447 108.434 99.3135 107.941C98.79 107.441 98.5283 106.844 98.5283 106.148C98.5283 105.461 98.79 104.871 99.3135 104.379C99.8447 103.879 100.481 103.629 101.224 103.629C101.966 103.629 102.599 103.879 103.122 104.379C103.653 104.871 103.919 105.461 103.919 106.148C103.919 106.844 103.653 107.441 103.122 107.941C102.599 108.434 101.966 108.68 101.224 108.68ZM115.816 136.125C114.199 136.125 112.813 135.902 111.656 135.457C110.508 135.02 109.594 134.422 108.914 133.664C108.234 132.906 107.793 132.055 107.59 131.109L112.207 130.488C112.348 130.848 112.57 131.184 112.875 131.496C113.18 131.809 113.582 132.059 114.082 132.246C114.59 132.441 115.207 132.539 115.934 132.539C117.02 132.539 117.914 132.273 118.617 131.742C119.328 131.219 119.684 130.34 119.684 129.105V125.812H119.473C119.254 126.312 118.926 126.785 118.488 127.23C118.051 127.676 117.488 128.039 116.801 128.32C116.113 128.602 115.293 128.742 114.34 128.742C112.988 128.742 111.758 128.43 110.648 127.805C109.547 127.172 108.668 126.207 108.012 124.91C107.363 123.605 107.039 121.957 107.039 119.965C107.039 117.926 107.371 116.223 108.035 114.855C108.699 113.488 109.582 112.465 110.684 111.785C111.793 111.105 113.008 110.766 114.328 110.766C115.336 110.766 116.18 110.938 116.859 111.281C117.539 111.617 118.086 112.039 118.5 112.547C118.922 113.047 119.246 113.539 119.473 114.023H119.66V111H124.617V129.176C124.617 130.707 124.242 131.988 123.492 133.02C122.742 134.051 121.703 134.824 120.375 135.34C119.055 135.863 117.535 136.125 115.816 136.125ZM115.922 124.992C116.727 124.992 117.406 124.793 117.961 124.395C118.523 123.988 118.953 123.41 119.25 122.66C119.555 121.902 119.707 120.996 119.707 119.941C119.707 118.887 119.559 117.973 119.262 117.199C118.965 116.418 118.535 115.812 117.973 115.383C117.41 114.953 116.727 114.738 115.922 114.738C115.102 114.738 114.41 114.961 113.848 115.406C113.285 115.844 112.859 116.453 112.57 117.234C112.281 118.016 112.137 118.918 112.137 119.941C112.137 120.98 112.281 121.879 112.57 122.637C112.867 123.387 113.293 123.969 113.848 124.383C114.41 124.789 115.102 124.992 115.922 124.992ZM133.582 118.594V129H128.59V105H133.441V114.176H133.652C134.059 113.113 134.715 112.281 135.621 111.68C136.527 111.07 137.664 110.766 139.031 110.766C140.281 110.766 141.371 111.039 142.301 111.586C143.238 112.125 143.965 112.902 144.48 113.918C145.004 114.926 145.262 116.133 145.254 117.539V129H140.262V118.43C140.27 117.32 139.988 116.457 139.418 115.84C138.855 115.223 138.066 114.914 137.051 114.914C136.371 114.914 135.77 115.059 135.246 115.348C134.73 115.637 134.324 116.059 134.027 116.613C133.738 117.16 133.59 117.82 133.582 118.594ZM158.757 111V114.75H147.917V111H158.757ZM150.378 106.687H155.37V123.469C155.37 123.93 155.44 124.289 155.581 124.547C155.722 124.797 155.917 124.973 156.167 125.074C156.425 125.176 156.722 125.227 157.058 125.227C157.292 125.227 157.526 125.207 157.761 125.168C157.995 125.121 158.175 125.086 158.3 125.062L159.085 128.777C158.835 128.855 158.483 128.945 158.03 129.047C157.577 129.156 157.026 129.223 156.378 129.246C155.175 129.293 154.12 129.133 153.214 128.766C152.315 128.398 151.616 127.828 151.116 127.055C150.616 126.281 150.37 125.305 150.378 124.125V106.687ZM169.74 105H175.998L182.607 121.125H182.889L189.498 105H195.756V129H190.834V113.379H190.635L184.424 128.883H181.072L174.861 113.32H174.662V129H169.74V105ZM207.976 129.352C206.155 129.352 204.581 128.965 203.253 128.191C201.933 127.41 200.913 126.324 200.194 124.934C199.476 123.535 199.116 121.914 199.116 120.07C199.116 118.211 199.476 116.586 200.194 115.195C200.913 113.797 201.933 112.711 203.253 111.937C204.581 111.156 206.155 110.766 207.976 110.766C209.796 110.766 211.366 111.156 212.687 111.937C214.015 112.711 215.038 113.797 215.757 115.195C216.476 116.586 216.835 118.211 216.835 120.07C216.835 121.914 216.476 123.535 215.757 124.934C215.038 126.324 214.015 127.41 212.687 128.191C211.366 128.965 209.796 129.352 207.976 129.352ZM207.999 125.484C208.827 125.484 209.519 125.25 210.073 124.781C210.628 124.305 211.046 123.656 211.327 122.836C211.616 122.016 211.761 121.082 211.761 120.035C211.761 118.988 211.616 118.055 211.327 117.234C211.046 116.414 210.628 115.766 210.073 115.289C209.519 114.812 208.827 114.574 207.999 114.574C207.163 114.574 206.46 114.812 205.89 115.289C205.327 115.766 204.901 116.414 204.612 117.234C204.331 118.055 204.19 118.988 204.19 120.035C204.19 121.082 204.331 122.016 204.612 122.836C204.901 123.656 205.327 124.305 205.89 124.781C206.46 125.25 207.163 125.484 207.999 125.484ZM226.714 129.293C225.347 129.293 224.108 128.941 222.999 128.238C221.897 127.527 221.022 126.484 220.374 125.109C219.733 123.727 219.413 122.031 219.413 120.023C219.413 117.961 219.745 116.246 220.409 114.879C221.073 113.504 221.956 112.477 223.058 111.797C224.167 111.109 225.382 110.766 226.702 110.766C227.71 110.766 228.55 110.938 229.222 111.281C229.901 111.617 230.448 112.039 230.862 112.547C231.284 113.047 231.604 113.539 231.823 114.023H231.976V105H236.956V129H232.034V126.117H231.823C231.589 126.617 231.257 127.113 230.827 127.605C230.405 128.09 229.854 128.492 229.175 128.812C228.503 129.133 227.683 129.293 226.714 129.293ZM228.296 125.32C229.101 125.32 229.78 125.102 230.335 124.664C230.897 124.219 231.327 123.598 231.624 122.801C231.929 122.004 232.081 121.07 232.081 120C232.081 118.93 231.933 118 231.636 117.211C231.339 116.422 230.909 115.812 230.347 115.383C229.784 114.953 229.101 114.738 228.296 114.738C227.476 114.738 226.784 114.961 226.222 115.406C225.659 115.852 225.233 116.469 224.944 117.258C224.655 118.047 224.511 118.961 224.511 120C224.511 121.047 224.655 121.973 224.944 122.777C225.241 123.574 225.667 124.199 226.222 124.652C226.784 125.098 227.476 125.32 228.296 125.32ZM249.264 129.352C247.412 129.352 245.818 128.977 244.482 128.227C243.154 127.469 242.131 126.398 241.412 125.016C240.693 123.625 240.334 121.98 240.334 120.082C240.334 118.23 240.693 116.605 241.412 115.207C242.131 113.809 243.143 112.719 244.447 111.937C245.76 111.156 247.299 110.766 249.064 110.766C250.252 110.766 251.357 110.957 252.381 111.34C253.412 111.715 254.311 112.281 255.076 113.039C255.85 113.797 256.451 114.75 256.881 115.898C257.311 117.039 257.525 118.375 257.525 119.906V121.277H242.326V118.184H252.826C252.826 117.465 252.67 116.828 252.357 116.273C252.045 115.719 251.611 115.285 251.057 114.973C250.51 114.652 249.873 114.492 249.146 114.492C248.389 114.492 247.717 114.668 247.131 115.02C246.553 115.363 246.1 115.828 245.771 116.414C245.443 116.992 245.275 117.637 245.268 118.348V121.289C245.268 122.18 245.432 122.949 245.76 123.598C246.096 124.246 246.568 124.746 247.178 125.098C247.787 125.449 248.51 125.625 249.346 125.625C249.9 125.625 250.408 125.547 250.869 125.391C251.33 125.234 251.725 125 252.053 124.687C252.381 124.375 252.631 123.992 252.803 123.539L257.42 123.844C257.186 124.953 256.705 125.922 255.979 126.75C255.26 127.57 254.33 128.211 253.189 128.672C252.057 129.125 250.748 129.352 249.264 129.352Z" fill="#3E3E3E"/>
<path d="M287 71H215C213.895 71 213 70.1046 213 69V28C213 26.8954 213.895 26 215 26H287C288.105 26 289 26.8954 289 28V69C289 70.1046 288.105 71 287 71Z" fill="#DCDCDC"/>
<path d="M205 71H131C129.895 71 129 70.1046 129 69V28C129 26.8954 129.895 26 131 26H205C206.105 26 207 26.8954 207 28V69C207 70.1046 206.105 71 205 71Z" fill="#DCDCDC"/>
<path d="M121 71H49C47.8954 71 47 70.1046 47 69V28C47 26.8954 47.8954 26 49 26H121C122.105 26 123 26.8954 123 28V69C123 70.1046 122.105 71 121 71Z" fill="#DCDCDC"/>
<path d="M287 9H49C47.8954 9 47 9.89543 47 11V18C47 19.1046 47.8954 20 49 20H287C288.105 20 289 19.1046 289 18V11C289 9.89543 288.105 9 287 9Z" fill="#DCDCDC"/>
</g>
</g>
<defs>
<clipPath id="clip0_98_15">
<rect width="300" height="168" fill="white"/>
</clipPath>
</defs>
</svg>
