<?xml version="1.0" encoding="utf-8"?>
<!-- Generated by IcoMoon.io -->
<!DOCTYPE svg PUBLIC "-//W3C//DTD SVG 1.1//EN" "http://www.w3.org/Graphics/SVG/1.1/DTD/svg11.dtd">
<svg version="1.1" xmlns="http://www.w3.org/2000/svg" xmlns:xlink="http://www.w3.org/1999/xlink" width="512" height="512" viewBox="0 0 512 512" fill="#95A5A6">
<g id="icomoon-ignore">
</g>
<path d="M423.609 288c17.6 0 35.956-13.846 40.791-30.77l46.418-162.462c4.835-16.922-5.609-30.768-23.209-30.768h-327.609c0-35.346-28.654-64-64-64h-96v64h96v272c0 26.51 21.49 48 48 48h304c17.673 0 32-14.327 32-32s-14.327-32-32-32h-288v-32h263.609zM160 128h289.403l-27.43 96h-261.973v-96z"></path>
<path d="M192 464c0 26.51-21.49 48-48 48s-48-21.49-48-48c0-26.51 21.49-48 48-48s48 21.49 48 48z"></path>
<path d="M480 464c0 26.51-21.49 48-48 48s-48-21.49-48-48c0-26.51 21.49-48 48-48s48 21.49 48 48z"></path>
</svg>
