<svg id="Layer_1" data-name="Layer 1" xmlns="http://www.w3.org/2000/svg" viewBox="0 0 2080.78 543.61">
  <defs>
    <style>
      .cls-1 {
        fill: #ddd;
      }

      .cls-2 {
        fill: #4595d0;
      }
    </style>
  </defs>
  <title>dcl-notext</title>
  <g>
    <path class="cls-1" d="M729.87,293.08V410c-0.89.07-1.71,0.2-2.53,0.2-73.62-.09-147.24.15-220.85-0.42-37.67-.29-74.61-5.88-109.85-20.1-40-16.15-72-42.31-97.24-77.16-16.3-22.51-29.21-46.67-37.6-73.21a12.91,12.91,0,0,0-.84-1.64c-2,5.55-3.78,10.86-5.83,16.06S251,264.2,248.5,269.22c-22.72,46.26-54.21,84.55-100.1,109.65-25.45,13.92-52.8,22.08-81.35,26.61-25,4-50.22,4.76-75.48,4.76q-108.18,0-216.36,0h-3.93V293.08h4.44q117.18,0,234.36-.13c20.39,0,40.29-3.38,59.13-11.52,28.35-12.24,46.42-34.12,57.87-62.15,13.51-33.07,17.13-67.51,14.42-102.86C140,96.9,136.42,77.82,129,59.65,112.9,20.45,83.49-2.7,42.26-10.6A226,226,0,0,0,3.19-14.31c-34.37-.5-68.74-0.17-103.11-0.17h-3.19v244.9h-125.6V-131.4c0.94-.06,1.79-0.16,2.64-0.16,77.49,0,155-.33,232.48.22,43.49,0.31,86,7.09,126.43,24.18,62.26,26.35,103,72.51,124.63,136.1,1.16,3.41,2.22,6.85,3.53,10.92,1.35-4.07,2.5-7.59,3.7-11.1C291.16-48.66,344.69-97,423-118.79c33.08-9.19,66.92-12.68,101.15-12.73q101.24-.14,202.48,0h3.14V-14.45h-4.34c-70.24,0-140.49-.1-210.73.11-21.5.06-42.54,3.43-62.42,12.14-32.15,14.08-52.06,39-62.76,71.79-8.84,27.09-11,55-9.33,83.27,1.54,26.4,7.45,51.78,19,75.72,16.72,34.66,44.47,54.79,82,61.2a235,235,0,0,0,38.38,3.16c68.49,0.3,137,.14,205.48.14h4.8Z" transform="translate(894.13 132.37)"/>
    <path class="cls-1" d="M791.19-131.47H916.62V293h270V410.18H791.19V-131.47Z" transform="translate(894.13 132.37)"/>
    <path class="cls-2" d="M-572.54,133.12a132.78,132.78,0,0,0,34.93,18.08c43.29,14.24,82.93,7.34,118-21.8,13.33-11.07,25.44-23.62,37.91-35.7,10.22-9.9,20.15-20.1,30.68-30.62,0.16,1.51.35,2.41,0.35,3.31q0,155.44,0,310.87c0,19.84-14.48,34-34.58,34q-154.5,0-309,0c-1.2,0-2.4-.12-4.52-0.22,1.46-1.52,2.34-2.47,3.25-3.39,17.59-17.76,35.51-35.21,52.7-53.35,16-16.85,28.43-36.12,35.4-58.49,9.52-30.53,5.37-59.71-9.48-87.6-3.57-6.71-7.8-13.06-11.58-19.33Z" transform="translate(894.13 132.37)"/>
    <path class="cls-2" d="M-545.84-132.37c-5.93,6-11.12,11.2-16.27,16.47C-577-100.71-592.31-86-606.48-70.18c-16.57,18.46-28.58,39.72-33.64,64.33-5.18,25.18-1.16,49.2,10.23,72,4.12,8.24,9.1,16,14.25,25l-55.75,54.73c-3.39-2.18-6.77-4.48-10.27-6.59a128.19,128.19,0,0,0-75.9-18.67c-24.33,1.54-45.68,11.28-64.58,26.25-8.79,7-17,14.67-25.11,22.49-14.62,14.18-28.92,28.7-43.36,43.07-0.85.84-1.77,1.62-3.15,2.87-0.11-1.79-.25-3-0.25-4.14q0-154.49-.12-309c0-17.34,11.67-31.45,27.61-34.13a43,43,0,0,1,7.09-.43q154.68,0,309.37,0h4.21Z" transform="translate(894.13 132.37)"/>
    <path class="cls-2" d="M-524.59,83.33c3.93-3.79,7.66-7.28,11.28-10.88q10.12-10,20.15-20.15c12.05-12.25,12.22-30.41.46-42.37S-522.78-2-535.05,10c-9.75,9.51-19.29,19.24-28.93,28.87-1,1-2,1.88-3.21,3.08-9.83-16.61-13.32-33.7-6.7-52.1a73.27,73.27,0,0,1,17.31-26.9q36.84-37.13,74-74c9.93-9.8,21.51-17.09,35.66-19.33,10.79-1.71,21.18,0,31.15,4.2,23.91,10,42.14,26.7,55,49,14.18,24.56,11.89,49.09-6.29,70.95-6.69,8-14.34,15.32-21.73,22.76q-28,28.21-56.2,56.23c-9.35,9.28-20,16.7-33,19.83C-492.76,96.12-510.73,92.56-524.59,83.33Z" transform="translate(894.13 132.37)"/>
    <path class="cls-2" d="M-720.14,195c-10.84,10.81-21.36,21.14-31.68,31.66-15.08,15.38-10.34,39.88,9.29,48.62A29.18,29.18,0,0,0-710,269.14c9.79-9.65,19.46-19.43,29.19-29.15,1-1,2-1.87,3.26-3.11a63,63,0,0,1,9.54,25.5c2.84,20.34-4.84,37.32-18.45,51.39-25.28,26.14-51.3,51.58-77,77.28a55.5,55.5,0,0,1-5.15,4.36c-9.83,7.67-20.59,13.12-33.28,14.12-9.84.77-19.15-1.32-28.06-5.18-23.52-10.18-41.48-26.77-54.13-48.85-13.93-24.32-11.47-48.64,6.43-70.7a105.57,105.57,0,0,1,7.23-8.11q35.24-35.3,70.58-70.48c10.08-10,21.49-17.93,35.83-20.59C-748.32,182.7-734.18,187.16-720.14,195Z" transform="translate(894.13 132.37)"/>
  </g>
</svg>
